<svg xmlns="http://www.w3.org/2000/svg" width="12" height="11" viewBox="0 0 12 11" fill="none">
<path d="M5.47174 7.68954C4.94218 7.9543 4.34649 8.06177 3.75656 7.99896C3.16663 7.93615 2.60769 7.70576 2.14719 7.3356C1.68669 6.96543 1.34432 6.47131 1.16142 5.91288C0.978506 5.35445 0.962872 4.75557 1.1164 4.18854L3.8515 4.91354C3.58389 4.38962 3.47527 3.80027 3.53876 3.21661C3.60224 2.63296 3.83511 2.07996 4.20925 1.62437C4.5834 1.16877 5.08284 0.830044 5.64727 0.64908C6.21171 0.468117 6.81702 0.452649 7.39015 0.604544L6.65735 3.31054C7.18691 3.04578 7.7826 2.93832 8.37253 3.00113C8.96246 3.06393 9.52141 3.29432 9.98191 3.66449C10.4424 4.03466 10.7848 4.52878 10.9677 5.08721C11.1506 5.64564 11.1662 6.24452 11.0127 6.81154L8.27759 6.08654C8.5452 6.61047 8.65382 7.19982 8.59034 7.78347C8.52686 8.36713 8.29399 8.92012 7.91984 9.37572C7.54569 9.83132 7.04626 10.17 6.48182 10.351C5.91738 10.532 5.31207 10.5474 4.73894 10.3955L5.47174 7.68954Z" stroke="white" stroke-linecap="round" stroke-linejoin="round"/>
<path d="M6.06445 5.5V5.505" stroke="white" stroke-linecap="round" stroke-linejoin="round"/>
</svg>