<svg width="13" height="12" viewBox="0 0 13 12" fill="none" xmlns="http://www.w3.org/2000/svg">
<g clip-path="url(#clip0_451_266)">
<path d="M6.20221 8.18954C5.67265 8.4543 5.07696 8.56177 4.48703 8.49896C3.8971 8.43615 3.33816 8.20576 2.87766 7.8356C2.41716 7.46543 2.07479 6.97131 1.89188 6.41288C1.70897 5.85445 1.69334 5.25557 1.84687 4.68854L4.58197 5.41354C4.31436 4.88962 4.20574 4.30027 4.26922 3.71661C4.33271 3.13296 4.56557 2.57996 4.93972 2.12437C5.31387 1.66877 5.8133 1.33004 6.37774 1.14908C6.94218 0.968117 7.54749 0.952649 8.12062 1.10454L7.38782 3.81054C7.91738 3.54578 8.51307 3.43832 9.103 3.50113C9.69293 3.56393 10.2519 3.79432 10.7124 4.16449C11.1729 4.53466 11.5152 5.02878 11.6981 5.58721C11.8811 6.14564 11.8967 6.74452 11.7432 7.31154L9.00806 6.58654C9.27567 7.11047 9.38429 7.69982 9.32081 8.28347C9.25732 8.86713 9.02446 9.42012 8.65031 9.87572C8.27616 10.3313 7.77673 10.67 7.21229 10.851C6.64785 11.032 6.04254 11.0474 5.46941 10.8955L6.20221 8.18954Z" stroke="#AEAEAE" stroke-width="2" stroke-linecap="round" stroke-linejoin="round"/>
<path d="M6.79492 6V6.005" stroke="#AEAEAE" stroke-width="2" stroke-linecap="round" stroke-linejoin="round"/>
</g>
<defs>
<clipPath id="clip0_451_266">
<rect x="0.730469" width="12.129" height="12" rx="6" fill="white"/>
</clipPath>
</defs>
</svg>
