<svg xmlns="http://www.w3.org/2000/svg" width="354" height="51" viewBox="0 0 354 51" fill="none">
<path d="M346.297 37.3357C342.969 37.3357 341.305 36.1837 341.305 33.8797C341.305 33.5597 341.337 33.2157 341.401 32.8477L341.905 29.8717C342.177 28.3357 342.881 27.1597 344.017 26.3437C345.169 25.5117 346.689 25.0957 348.577 25.0957C351.793 25.0957 353.401 26.3117 353.401 28.7437C353.401 29.0957 353.369 29.4797 353.305 29.8957L353.017 31.5997H345.697L345.601 32.1517C345.569 32.3437 345.553 32.5197 345.553 32.6797C345.553 33.5597 346.073 33.9997 347.113 33.9997C347.497 33.9997 347.825 33.8797 348.097 33.6397C348.369 33.3997 348.529 33.1197 348.577 32.7997L352.561 32.8477C352.033 35.8397 349.945 37.3357 346.297 37.3357ZM349.177 30.1357C349.241 29.8637 349.273 29.6157 349.273 29.3917C349.273 29.1517 349.169 28.9117 348.961 28.6717C348.753 28.4317 348.417 28.3117 347.953 28.3117C347.505 28.3117 347.089 28.4637 346.705 28.7677C346.337 29.0717 346.081 29.5277 345.937 30.1357H349.177Z" fill="white"/>
<path d="M338.248 33.3037C338.248 33.7197 338.456 33.9277 338.872 33.9277C339.304 33.9277 339.664 33.8477 339.952 33.6877L339.832 36.3997C339.064 37.0237 338.2 37.3357 337.24 37.3357C335.784 37.3357 334.84 36.9997 334.408 36.3277C334.136 35.8957 334 35.4237 334 34.9117C334 34.3997 334.032 33.9517 334.096 33.5677L336.712 18.7837H340.792L338.272 33.0157C338.256 33.1117 338.248 33.2077 338.248 33.3037Z" fill="white"/>
<path d="M321.224 26.4879H315.512L313.64 36.9999H305L311.096 2.43994H325.736C329.352 2.43994 331.928 3.27194 333.464 4.93594C334.584 6.21594 335.144 7.84794 335.144 9.83194C335.144 10.5039 335.08 11.2079 334.952 11.9439L333.992 17.3679C333.512 20.0239 332.104 22.2159 329.768 23.9439C327.432 25.6399 324.584 26.4879 321.224 26.4879ZM322.712 9.92794H318.392L316.808 18.9999H321.08C323.704 18.9999 325.224 17.8319 325.64 15.4959L325.976 13.5279C326.04 13.2399 326.072 12.8559 326.072 12.3759C326.072 11.8959 325.832 11.3679 325.352 10.7919C324.872 10.2159 323.992 9.92794 322.712 9.92794Z" fill="white"/>
<path d="M297.562 25.1201C299.29 25.1201 300.594 25.4961 301.474 26.2481C302.162 26.8401 302.506 27.6641 302.506 28.7201C302.506 29.0721 302.466 29.4561 302.386 29.8721L301.882 32.6801C301.578 34.3761 300.866 35.5761 299.746 36.2801C298.642 36.9841 297.162 37.3361 295.306 37.3361C293.45 37.3361 292.09 36.9841 291.226 36.2801C290.586 35.7521 290.266 34.9601 290.266 33.9041C290.266 33.5361 290.306 33.1281 290.386 32.6801L290.89 29.8721C291.45 26.7041 293.674 25.1201 297.562 25.1201ZM298.21 30.3521C298.242 30.1921 298.258 29.9921 298.258 29.7521C298.258 29.4961 298.154 29.2161 297.946 28.9121C297.738 28.6081 297.37 28.4561 296.842 28.4561C296.33 28.4561 295.898 28.6321 295.546 28.9841C295.194 29.3201 294.97 29.7761 294.874 30.3521L294.562 32.1521C294.53 32.3121 294.514 32.5201 294.514 32.7761C294.514 33.0161 294.618 33.2801 294.826 33.5681C295.034 33.8561 295.394 34.0001 295.906 34.0001C296.434 34.0001 296.874 33.8241 297.226 33.4721C297.578 33.1041 297.802 32.6641 297.898 32.1521L298.21 30.3521Z" fill="white"/>
<path d="M281.992 37.3357C278.664 37.3357 277 36.1837 277 33.8797C277 33.5597 277.032 33.2157 277.096 32.8477L277.6 29.8717C277.872 28.3357 278.576 27.1597 279.712 26.3437C280.864 25.5117 282.384 25.0957 284.272 25.0957C287.488 25.0957 289.096 26.3117 289.096 28.7437C289.096 29.0957 289.064 29.4797 289 29.8957L288.712 31.5997H281.392L281.296 32.1517C281.264 32.3437 281.248 32.5197 281.248 32.6797C281.248 33.5597 281.768 33.9997 282.808 33.9997C283.192 33.9997 283.52 33.8797 283.792 33.6397C284.064 33.3997 284.224 33.1197 284.272 32.7997L288.256 32.8477C287.728 35.8397 285.64 37.3357 281.992 37.3357ZM284.872 30.1357C284.936 29.8637 284.968 29.6157 284.968 29.3917C284.968 29.1517 284.864 28.9117 284.656 28.6717C284.448 28.4317 284.112 28.3117 283.648 28.3117C283.2 28.3117 282.784 28.4637 282.4 28.7677C282.032 29.0717 281.776 29.5277 281.632 30.1357H284.872Z" fill="white"/>
<path d="M269.911 26.4879H264.2L262.327 36.9999H253.688L259.783 2.43994H274.424C278.04 2.43994 280.616 3.27194 282.152 4.93594C283.272 6.21594 283.831 7.84794 283.831 9.83194C283.831 10.5039 283.768 11.2079 283.64 11.9439L282.679 17.3679C282.199 20.0239 280.791 22.2159 278.455 23.9439C276.119 25.6399 273.271 26.4879 269.911 26.4879ZM271.399 9.92794H267.079L265.495 18.9999H269.768C272.392 18.9999 273.911 17.8319 274.327 15.4959L274.663 13.5279C274.727 13.2399 274.76 12.8559 274.76 12.3759C274.76 11.8959 274.52 11.3679 274.04 10.7919C273.56 10.2159 272.679 9.92794 271.399 9.92794Z" fill="white"/>
<path d="M234.999 29.6079C234.999 30.4399 235.415 30.8559 236.247 30.8559C237.111 30.8559 237.831 30.6959 238.407 30.3759L238.167 35.7999C236.631 37.0479 234.903 37.6719 232.983 37.6719C229.463 37.6719 227.511 36.3919 227.127 33.8319C225.527 36.3919 223.175 37.6719 220.071 37.6719C214.823 37.6719 212.199 35.4159 212.199 30.9039C212.199 30.1359 212.279 29.2879 212.439 28.3599L213.447 22.7439C213.959 19.8639 215.127 17.5759 216.951 15.8799C218.807 14.1519 221.367 13.2879 224.631 13.2879C226.647 13.2879 228.247 13.7199 229.431 14.5839L231.879 0.567871H240.087L235.047 29.0319C235.015 29.2239 234.999 29.4159 234.999 29.6079ZM220.791 27.3039C220.727 27.5919 220.695 27.9919 220.695 28.5039C220.695 29.0159 220.935 29.5279 221.415 30.0399C221.895 30.5199 222.695 30.7599 223.815 30.7599C224.967 30.7599 225.959 30.3119 226.791 29.4159L228.231 21.3519C227.879 20.5519 227.047 20.1519 225.735 20.1519C223.271 20.1519 221.831 21.3359 221.415 23.7039L220.791 27.3039Z" fill="white"/>
<path d="M199.257 22.2637C199.257 20.8877 198.585 20.1997 197.241 20.1997C195.929 20.1997 194.841 20.6957 193.977 21.6877L191.289 36.9997H183.129L187.209 13.9117H194.793L194.265 16.7437C196.153 14.4077 198.537 13.2397 201.417 13.2397C204.297 13.2397 206.169 13.9437 207.033 15.3517C207.577 16.2477 207.849 17.2717 207.849 18.4237C207.849 19.5757 207.769 20.6477 207.609 21.6397L206.313 29.0317C206.281 29.2237 206.265 29.3997 206.265 29.5597C206.265 30.4237 206.745 30.8557 207.705 30.8557C208.441 30.8557 209.097 30.6957 209.673 30.3757L209.433 35.7997C207.929 37.0477 206.217 37.6717 204.297 37.6717C199.945 37.6717 197.769 35.8477 197.769 32.1997C197.769 31.5597 197.833 30.8717 197.961 30.1357L199.113 23.7517C199.209 23.1757 199.257 22.6797 199.257 22.2637Z" fill="white"/>
<path d="M177.437 29.6078C177.437 30.4398 177.853 30.8558 178.685 30.8558C179.549 30.8558 180.269 30.6958 180.845 30.3758L180.605 35.7998C179.069 37.0478 177.341 37.6718 175.421 37.6718C171.901 37.6718 169.949 36.3918 169.565 33.8318C167.965 36.3918 165.613 37.6718 162.509 37.6718C157.261 37.6718 154.637 35.4158 154.637 30.9038C154.637 30.1358 154.717 29.2878 154.877 28.3598L155.885 22.7438C156.397 19.8638 157.565 17.5758 159.389 15.8798C161.245 14.1518 163.645 13.2878 166.589 13.2878C169.565 13.2878 171.581 13.9758 172.637 15.3518L172.877 13.9118H180.173L177.485 29.0318C177.453 29.2238 177.437 29.4158 177.437 29.6078ZM163.229 27.3038C163.165 27.5918 163.133 27.9918 163.133 28.5038C163.133 29.0158 163.373 29.5278 163.853 30.0398C164.333 30.5198 165.133 30.7598 166.253 30.7598C167.405 30.7598 168.397 30.3118 169.229 29.4158L170.669 21.3518C170.317 20.5518 169.485 20.1518 168.173 20.1518C165.709 20.1518 164.269 21.3358 163.853 23.7038L163.229 27.3038Z" fill="white"/>
<path d="M148.525 29.6079C148.525 30.4399 148.941 30.8559 149.773 30.8559C150.637 30.8559 151.357 30.6959 151.933 30.3759L151.693 35.7999C150.157 37.0479 148.429 37.6719 146.509 37.6719C143.597 37.6719 141.709 36.9999 140.845 35.6559C140.301 34.7919 140.029 33.8479 140.029 32.8239C140.029 31.7999 140.093 30.9039 140.221 30.1359L145.453 0.567871H153.613L148.573 29.0319C148.541 29.2239 148.525 29.4159 148.525 29.6079Z" fill="white"/>
<path d="M122.808 37.6719C116.152 37.6719 112.824 35.3679 112.824 30.7599C112.824 30.1199 112.888 29.4319 113.016 28.6959L114.024 22.7439C114.568 19.6719 115.976 17.3199 118.248 15.6879C120.552 14.0239 123.592 13.1919 127.368 13.1919C133.8 13.1919 137.016 15.6239 137.016 20.4879C137.016 21.1919 136.952 21.9599 136.824 22.7919L136.248 26.1999H121.608L121.416 27.3039C121.352 27.6879 121.32 28.0399 121.32 28.3599C121.32 30.1199 122.36 30.9999 124.44 30.9999C125.208 30.9999 125.864 30.7599 126.408 30.2799C126.952 29.7999 127.272 29.2399 127.368 28.5999L135.336 28.6959C134.28 34.6799 130.104 37.6719 122.808 37.6719ZM128.568 23.2719C128.696 22.7279 128.76 22.2319 128.76 21.7839C128.76 21.3039 128.552 20.8239 128.136 20.3439C127.72 19.8639 127.048 19.6239 126.12 19.6239C125.224 19.6239 124.392 19.9279 123.624 20.5359C122.888 21.1439 122.376 22.0559 122.088 23.2719H128.568Z" fill="white"/>
<path d="M106.713 29.6079C106.713 30.4399 107.129 30.8559 107.961 30.8559C108.825 30.8559 109.545 30.6959 110.121 30.3759L109.881 35.7999C108.345 37.0479 106.617 37.6719 104.697 37.6719C101.785 37.6719 99.8968 36.9999 99.0328 35.6559C98.4888 34.7919 98.2168 33.8479 98.2168 32.8239C98.2168 31.7999 98.2808 30.9039 98.4088 30.1359L103.641 0.567871H111.801L106.761 29.0319C106.729 29.2239 106.713 29.4159 106.713 29.6079Z" fill="white"/>
<path d="M86.7835 13.2878C90.0475 13.2878 92.3035 14.1518 93.5515 15.8798C94.4475 17.0638 94.8955 18.5678 94.8955 20.3918C94.8955 21.1278 94.8155 21.9118 94.6555 22.7438L93.6955 28.3598C93.1515 31.3998 91.9835 33.7198 90.1915 35.3198C88.3995 36.8878 86.1595 37.6718 83.4715 37.6718C80.7835 37.6718 78.9115 36.9518 77.8555 35.5118L75.2635 50.3438H67.1035L73.5355 13.9118H80.9275L80.6875 15.2078C82.1915 13.9278 84.2235 13.2878 86.7835 13.2878ZM81.7915 30.7598C82.6875 30.7598 83.5195 30.4718 84.2875 29.8958C85.0555 29.3198 85.5355 28.4558 85.7275 27.3038L86.3515 23.7038C86.4155 23.3838 86.4475 22.9838 86.4475 22.5038C86.4475 22.0238 86.2395 21.5118 85.8235 20.9678C85.4075 20.4238 84.6875 20.1518 83.6635 20.1518C81.9995 20.1518 80.9115 20.5518 80.3995 21.3518L78.9595 29.4158C79.4075 30.3118 80.3515 30.7598 81.7915 30.7598Z" fill="white"/>
<path d="M63.7648 29.6078C63.7648 30.4398 64.1808 30.8558 65.0128 30.8558C65.8768 30.8558 66.5968 30.6958 67.1728 30.3758L66.9328 35.7998C65.3968 37.0478 63.6688 37.6718 61.7488 37.6718C58.2288 37.6718 56.2768 36.3918 55.8928 33.8318C54.2928 36.3918 51.9408 37.6718 48.8368 37.6718C43.5888 37.6718 40.9648 35.4158 40.9648 30.9038C40.9648 30.1358 41.0448 29.2878 41.2048 28.3598L42.2128 22.7438C42.7248 19.8638 43.8928 17.5758 45.7168 15.8798C47.5728 14.1518 49.9728 13.2878 52.9168 13.2878C55.8928 13.2878 57.9088 13.9758 58.9648 15.3518L59.2048 13.9118H66.5008L63.8128 29.0318C63.7808 29.2238 63.7648 29.4158 63.7648 29.6078ZM49.5568 27.3038C49.4928 27.5918 49.4608 27.9918 49.4608 28.5038C49.4608 29.0158 49.7008 29.5278 50.1808 30.0398C50.6608 30.5198 51.4608 30.7598 52.5808 30.7598C53.7328 30.7598 54.7248 30.3118 55.5568 29.4158L56.9968 21.3518C56.6448 20.5518 55.8128 20.1518 54.5008 20.1518C52.0368 20.1518 50.5968 21.3358 50.1808 23.7038L49.5568 27.3038Z" fill="white"/>
<path d="M15.12 2.43994L20.256 18.9999L31.296 2.43994H40.368L34.272 36.9999H25.584L29.04 17.5119L21.648 29.1279H15.36L12.096 17.5119L8.64 36.9999H0L6.096 2.43994H15.12Z" fill="white"/>
</svg>