<svg width="14" height="14" viewBox="0 0 14 14" fill="none" xmlns="http://www.w3.org/2000/svg">
<path d="M12.1984 8.31356C11.6307 8.07545 10.9224 7.73143 10.7508 7.61285C10.2199 7.24333 9.89907 7.08871 9.43461 6.9726L9.15908 6.90628L9.30896 6.74442C9.55393 6.48194 9.95185 5.96047 10.1052 5.69857C10.3592 5.26582 10.4558 5.00876 10.5127 4.61683C10.5654 4.25984 10.6297 4.04906 10.8132 3.6372C10.8701 3.5112 10.9106 3.39798 10.9054 3.39144C10.9007 3.38199 10.7749 3.39609 10.6272 3.41934C10.1479 3.49644 9.97257 3.50447 9.61925 3.46997C9.22482 3.43338 8.95823 3.46271 8.47035 3.60968C8.16096 3.69877 7.5591 3.95586 7.26407 4.12059L7.07368 4.22724L7.06635 3.87765C7.05815 3.46295 6.9691 3.00877 6.83711 2.71185C6.72376 2.45563 6.60586 1.94767 6.47419 1.14253C6.37834 0.575233 6.37246 0.550872 6.32901 0.640097C6.15554 0.994089 5.21467 2.08719 4.75024 2.47639C4.3323 2.82402 4.01201 3.41116 3.84409 4.1293L3.76949 4.44814L3.66014 4.35198C3.47096 4.18397 2.56419 3.60283 1.79997 3.16035L1.58505 3.0335L1.63766 3.13451C1.72281 3.30749 1.92024 3.91385 2.09812 4.55919C2.19273 4.89585 2.32166 5.28991 2.38929 5.43709C2.45401 5.58392 2.54401 5.81363 2.58942 5.94923C2.74323 6.40544 2.82488 6.96805 2.74828 7.03843C2.68766 7.09895 2.23411 7.30332 2.0476 7.3543C1.88218 7.40197 1.77089 7.41786 1.38755 7.45946C1.31263 7.46799 1.39567 7.51364 1.93976 7.77545C2.29411 7.94601 2.67067 8.12815 2.7763 8.18249C2.95985 8.27594 3.20485 8.35033 3.68601 8.45076L3.88473 8.49288L1.96616 9.99197L0.0508635 11.4885L0.0354994 11.6137C0.0137038 11.7913 0.11841 11.9253 0.295989 11.9471L0.421167 11.9624L2.33647 10.4659L4.25503 8.9668L4.24785 9.16981C4.22893 9.66097 4.24187 9.91669 4.28816 10.1174C4.31533 10.233 4.40065 10.6454 4.48081 11.0275C4.60072 11.6155 4.62748 11.7104 4.65388 11.6398C4.83898 11.1188 5.00822 10.8234 5.27678 10.5372C5.41579 10.3917 5.42197 10.3895 5.52499 10.417C5.9327 10.5379 6.4084 10.8031 6.85045 11.1499C7.00133 11.2689 7.25272 11.4357 7.41043 11.523C8.1389 11.9198 8.69918 12.2663 8.91058 12.4459L8.99623 12.5185L8.92512 12.2793C8.68058 11.4307 8.33598 10.4103 8.21871 10.1861L8.15185 10.0568L8.47927 10.0615C9.22252 10.0729 9.86387 9.90344 10.315 9.57465C10.7987 9.22034 12.0862 8.57756 12.472 8.49194C12.5749 8.47206 12.5695 8.46844 12.1984 8.31356ZM7.92004 7.90073C7.89353 7.92407 7.8561 7.94016 7.83863 7.93802C7.82116 7.93588 7.22459 7.95721 6.51199 7.98499L5.21737 8.0359L4.78629 8.37009L4.35195 8.70684L4.25782 8.58299L4.16041 8.46171L4.5922 8.12169L5.02073 7.78423L5.38463 6.5287C5.58754 5.8385 5.76013 5.25096 5.77208 5.22583C5.80031 5.16429 5.93305 5.14217 5.99209 5.19078C6.01615 5.21146 6.03372 5.2609 6.03454 5.30237C6.03541 5.36749 5.52936 7.15519 5.43934 7.40714C5.4209 7.46102 5.52008 7.39932 5.81715 7.16983C6.03905 6.99908 6.24281 6.85566 6.27335 6.84759C6.34899 6.83323 6.46136 6.97704 6.42914 7.04696C6.41392 7.07464 6.22548 7.23768 6.00613 7.41169C5.71162 7.64445 5.62776 7.72576 5.6845 7.72091C5.87 7.7023 7.77829 7.63512 7.84816 7.64369C7.89183 7.64905 7.93953 7.66968 7.95741 7.69256C8.00082 7.74812 7.98178 7.85512 7.92004 7.90073Z" fill="#D26D34"/>
</svg>
