<svg width="12" height="15" viewBox="0 0 12 15" fill="none" xmlns="http://www.w3.org/2000/svg">
<path fill-rule="evenodd" clip-rule="evenodd" d="M9.25226 3.49583C10.6635 5.43788 10.2331 8.15622 8.2911 9.56743C6.34905 10.9786 3.6307 10.5483 2.21949 8.60627C0.808287 6.66422 1.23862 3.94587 3.18066 2.53466C5.12271 1.12346 7.84105 1.55379 9.25226 3.49583ZM9.00253 9.93024C11.0223 8.23296 11.4131 5.23715 9.83833 3.06996C8.19192 0.804242 5.02051 0.302192 2.75479 1.9486C0.489072 3.59501 -0.0129783 6.76642 1.63343 9.03214C3.20825 11.1993 6.17832 11.7529 8.41647 10.3561L10.7663 13.5898C10.8839 13.7516 11.1104 13.7875 11.2722 13.6699C11.4341 13.5523 11.4699 13.3258 11.3523 13.1639L9.00253 9.93024Z" fill="#505050"/>
<path d="M9.00253 9.93024L8.80952 9.70057L8.59549 9.88043L8.75984 10.1066L9.00253 9.93024ZM8.41647 10.3561L8.65916 10.1798L8.49481 9.95359L8.25763 10.1016L8.41647 10.3561ZM8.46745 9.81012C10.5435 8.30152 11.0036 5.39556 9.49495 3.31948L9.00957 3.67219C10.3234 5.4802 9.92275 8.01093 8.11474 9.32474L8.46745 9.81012ZM1.9768 8.78262C3.48541 10.8587 6.39137 11.3187 8.46745 9.81012L8.11474 9.32474C6.30673 10.6386 3.776 10.2379 2.46219 8.42991L1.9768 8.78262ZM3.00431 2.29197C0.928227 3.80058 0.468198 6.70654 1.9768 8.78262L2.46219 8.42991C1.14838 6.6219 1.549 4.09117 3.35702 2.77736L3.00431 2.29197ZM9.49495 3.31948C7.98635 1.2434 5.08039 0.783368 3.00431 2.29197L3.35702 2.77736C5.16503 1.46355 7.69576 1.86418 9.00957 3.67219L9.49495 3.31948ZM9.19553 10.1599C11.335 8.36203 11.7491 5.1891 10.081 2.89361L9.59563 3.24632C11.0772 5.28519 10.7096 8.10388 8.80952 9.70057L9.19553 10.1599ZM10.081 2.89361C8.33721 0.493853 4.97819 -0.0378974 2.57844 1.70591L2.93115 2.19129C5.06283 0.642281 8.04662 1.11463 9.59563 3.24632L10.081 2.89361ZM2.57844 1.70591C0.178683 3.44972 -0.353068 6.80874 1.39074 9.20849L1.87612 8.85578C0.327111 6.7241 0.799461 3.7403 2.93115 2.19129L2.57844 1.70591ZM1.39074 9.20849C3.05879 11.504 6.2045 12.0902 8.5753 10.6106L8.25763 10.1016C6.15215 11.4156 3.3577 10.8947 1.87612 8.85578L1.39074 9.20849ZM11.0089 13.4134L8.65916 10.1798L8.17377 10.5325L10.5236 13.7661L11.0089 13.4134ZM11.0959 13.4272C11.0681 13.4474 11.0291 13.4412 11.0089 13.4134L10.5236 13.7661C10.7386 14.062 11.1527 14.1276 11.4486 13.9126L11.0959 13.4272ZM11.1096 13.3403C11.1298 13.3681 11.1237 13.407 11.0959 13.4272L11.4486 13.9126C11.7444 13.6976 11.81 13.2834 11.595 12.9876L11.1096 13.3403ZM8.75984 10.1066L11.1096 13.3403L11.595 12.9876L9.24522 9.75389L8.75984 10.1066Z" fill="#505050"/>
</svg>
