<svg width="18" height="18" viewBox="0 0 18 18" fill="none" xmlns="http://www.w3.org/2000/svg">
<circle cx="9" cy="9" r="9" fill="#6C6C6C"/>
<path d="M13.8104 12.9011C13.9311 13.0219 13.9989 13.1856 13.9989 13.3563C13.9989 13.527 13.9311 13.6907 13.8104 13.8115C13.6897 13.9322 13.5259 14 13.3552 14C13.1845 14 13.0207 13.9322 12.9 13.8115L9.5 10.4106L6.09893 13.8104C5.9782 13.9311 5.81447 13.9989 5.64374 13.9989C5.47301 13.9989 5.30927 13.9311 5.18855 13.8104C5.06782 13.6897 5 13.526 5 13.3552C5 13.1845 5.06782 13.0208 5.18855 12.9001L8.58962 9.50027L5.18962 6.0994C5.06889 5.97868 5.00107 5.81495 5.00107 5.64423C5.00107 5.47351 5.06889 5.30979 5.18962 5.18907C5.31034 5.06835 5.47408 5.00054 5.64481 5.00054C5.81554 5.00054 5.97927 5.06835 6.1 5.18907L9.5 8.58994L12.9011 5.18853C13.0218 5.06782 13.1855 5 13.3563 5C13.527 5 13.6907 5.06782 13.8115 5.18853C13.9322 5.30925 14 5.47298 14 5.6437C14 5.81442 13.9322 5.97814 13.8115 6.09886L10.4104 9.50027L13.8104 12.9011Z" fill="#CCCCCC"/>
</svg>
