<svg xmlns="http://www.w3.org/2000/svg" width="13" height="12" viewBox="0 0 13 12" fill="none">
<g clip-path="url(#clip0_834_72)">
<path d="M5.47174 8.18954C4.94218 8.4543 4.34649 8.56177 3.75656 8.49896C3.16663 8.43615 2.60769 8.20576 2.14719 7.8356C1.68669 7.46543 1.34432 6.97131 1.16142 6.41288C0.978506 5.85445 0.962872 5.25557 1.1164 4.68854L3.8515 5.41354C3.58389 4.88962 3.47527 4.30027 3.53876 3.71661C3.60224 3.13296 3.83511 2.57996 4.20925 2.12437C4.5834 1.66877 5.08284 1.33004 5.64727 1.14908C6.21171 0.968117 6.81702 0.952649 7.39015 1.10454L6.65735 3.81054C7.18691 3.54578 7.7826 3.43832 8.37253 3.50113C8.96246 3.56393 9.52141 3.79432 9.98191 4.16449C10.4424 4.53466 10.7848 5.02878 10.9677 5.58721C11.1506 6.14564 11.1662 6.74452 11.0127 7.31154L8.27759 6.58654C8.5452 7.11047 8.65382 7.69982 8.59034 8.28347C8.52686 8.86713 8.29399 9.42012 7.91984 9.87572C7.54569 10.3313 7.04626 10.67 6.48182 10.851C5.91738 11.032 5.31207 11.0474 4.73894 10.8955L5.47174 8.18954Z" stroke="#FECA57" stroke-width="2" stroke-linecap="round" stroke-linejoin="round"/>
<path d="M6.06445 6V6.005" stroke="#FECA57" stroke-linecap="round" stroke-linejoin="round"/>
</g>
<defs>
<clipPath id="clip0_834_72">
<rect width="12.129" height="12" rx="6" fill="white"/>
</clipPath>
</defs>
</svg>